<svg width="294" height="272" viewBox="0 0 294 272" fill="none" xmlns="http://www.w3.org/2000/svg">
<g clip-path="url(#clip0_2092_31)">
<path d="M114.5 171.725C146.118 171.725 171.75 146.093 171.75 114.475C171.75 82.8564 146.118 57.2247 114.5 57.2247C82.8817 57.2247 57.25 82.8564 57.25 114.475C57.25 146.093 82.8817 171.725 114.5 171.725Z" fill="white"/>
<path d="M114.5 57.25H213.644C203.597 39.843 189.145 25.3879 171.74 15.3382C154.335 5.28848 134.591 -0.00164615 114.492 -0.000243862C94.3944 0.00115842 74.6509 5.29404 57.2473 15.3462C39.8436 25.3984 25.3933 39.8555 15.3492 57.2638L64.9211 143.125L64.9654 143.114C59.9227 134.418 57.2615 124.546 57.2502 114.494C57.2389 104.441 59.8779 94.5636 64.9011 85.8564C69.9243 77.1491 77.1542 69.92 85.862 64.8977C94.5698 59.8755 104.448 57.2376 114.5 57.25Z" fill="url(#paint0_linear_2092_31)"/>
<path d="M114.5 159.823C139.531 159.823 159.823 139.531 159.823 114.5C159.823 89.4689 139.531 69.1771 114.5 69.1771C89.4689 69.1771 69.1771 89.4689 69.1771 114.5C69.1771 139.531 89.4689 159.823 114.5 159.823Z" fill="#1A73E8"/>
<path d="M164.075 143.139L114.503 229C134.601 229.003 154.346 223.714 171.752 213.666C189.157 203.617 203.611 189.163 213.658 171.757C223.706 154.351 228.994 134.606 228.99 114.508C228.987 94.4101 223.692 74.6673 213.638 57.2648H114.495L114.483 57.3091C124.535 57.2897 134.415 59.9208 143.126 64.9371C151.837 69.9534 159.072 77.1777 164.101 85.8816C169.131 94.5855 171.776 104.461 171.771 114.514C171.767 124.566 169.112 134.44 164.075 143.139Z" fill="url(#paint1_linear_2092_31)"/>
<path d="M64.9244 143.14L15.3526 57.2786C5.30103 74.6826 0.00880571 94.4262 0.00805672 114.524C0.00730773 134.622 5.29806 154.366 15.3483 171.771C25.3986 189.176 39.8541 203.628 57.2613 213.674C74.6685 223.72 94.4139 229.006 114.512 229L164.084 143.139L164.052 143.106C159.042 151.822 151.824 159.062 143.124 164.098C134.424 169.134 124.55 171.787 114.498 171.791C104.445 171.794 94.5699 169.147 85.8666 164.117C77.1632 159.087 69.9398 151.852 64.9244 143.14Z" fill="url(#paint2_linear_2092_31)"/>
</g>
<rect x="166" y="144" width="128" height="128" rx="20" fill="black"/>
<path d="M230.804 229C227.164 229 223.733 228.339 220.51 227.017C217.338 225.642 214.583 223.712 212.243 221.226C209.956 218.741 208.24 215.806 207.096 212.421C207.096 212.421 206.147 208.606 210.209 206.564C214.271 204.523 217 207.9 217 207.9C218.456 211.126 220.458 213.664 223.005 215.515C225.605 217.366 228.464 218.291 231.583 218.291C233.247 218.291 234.677 218.027 235.873 217.498C237.068 216.969 238.004 216.255 238.68 215.356C239.356 214.404 239.694 213.294 239.694 212.025C239.694 210.65 239.278 209.486 238.446 208.534C237.614 207.53 236.314 206.736 234.547 206.155L223.161 202.347C218.534 200.814 215.051 198.645 212.711 195.843C210.372 192.987 209.202 189.576 209.202 185.61C209.202 182.12 210.034 179.052 211.697 176.408C213.413 173.764 215.778 171.702 218.794 170.221C221.861 168.74 225.371 168 229.322 168C232.805 168 236.028 168.608 238.992 169.824C241.955 171.041 244.503 172.759 246.634 174.98C248.818 177.202 250.456 179.872 251.547 182.992C251.547 182.992 253.263 186.734 250.014 189.212C245.14 192.931 241.721 187.514 241.721 187.514C240.63 184.764 238.992 182.622 236.808 181.088C234.625 179.502 232.129 178.709 229.322 178.709C227.71 178.709 226.28 178.973 225.033 179.502C223.785 180.031 222.823 180.798 222.147 181.802C221.471 182.754 221.133 183.865 221.133 185.134C221.133 186.509 221.575 187.725 222.459 188.783C223.343 189.788 224.669 190.581 226.436 191.163L237.588 194.811C242.267 196.345 245.751 198.487 248.038 201.237C250.378 203.987 251.547 207.345 251.547 211.311C251.547 214.748 250.664 217.815 248.896 220.512C247.128 223.156 244.685 225.245 241.565 226.779C238.498 228.26 234.911 229 230.804 229Z" fill="white"/>
<rect x="207" y="237" width="45" height="12" rx="6" fill="white"/>
<defs>
<linearGradient id="paint0_linear_2092_31" x1="15.3492" y1="71.5625" x2="213.644" y2="71.5625" gradientUnits="userSpaceOnUse">
<stop stop-color="#D93025"/>
<stop offset="1" stop-color="#EA4335"/>
</linearGradient>
<linearGradient id="paint1_linear_2092_31" x1="98.8607" y1="227.469" x2="198.008" y2="55.741" gradientUnits="userSpaceOnUse">
<stop stop-color="#FCC934"/>
<stop offset="1" stop-color="#FBBC04"/>
</linearGradient>
<linearGradient id="paint2_linear_2092_31" x1="126.895" y1="221.851" x2="27.7477" y2="50.1223" gradientUnits="userSpaceOnUse">
<stop stop-color="#1E8E3E"/>
<stop offset="1" stop-color="#34A853"/>
</linearGradient>
<clipPath id="clip0_2092_31">
<rect width="229" height="229" fill="white"/>
</clipPath>
</defs>
</svg>
